<svg width="55" height="55" viewBox="0 0 55 55" fill="none" xmlns="http://www.w3.org/2000/svg">
<circle cx="27.5" cy="27.5" r="17.5" fill="url(#paint0_linear_15_1283)" fill-opacity="0.3"/>
<g filter="url(#filter0_d_15_1283)">
<path d="M28 17C22.4882 17 18 21.4884 18 27C18 32.5116 22.4884 37 28 37C33.5116 37 38 32.5116 38 27C38 21.4884 33.5116 17 28 17ZM27.3023 21.1861C27.3023 20.7907 27.6046 20.4884 28 20.4884C28.3954 20.4884 28.6977 20.7907 28.6977 21.1861V25.3722C28.6977 25.7443 28.3954 26.0699 28 26.0699C27.6046 26.0699 27.3023 25.7676 27.3023 25.3722V21.1861ZM32.0697 30.5351C31.0465 31.7212 29.5581 32.3956 28.0001 32.3956C25.0233 32.3956 22.6045 29.9769 22.6045 27.0001C22.6045 25.4419 23.2789 23.9535 24.465 22.9304C24.7673 22.6745 25.1858 22.6978 25.4417 23.0001C25.6976 23.3025 25.6743 23.721 25.3719 23.9769C23.6974 25.4188 23.5115 27.9537 24.9765 29.6278C26.4184 31.3024 28.9533 31.4883 30.6275 30.0233C32.302 28.5582 32.488 26.0465 31.0229 24.3723C30.9067 24.2328 30.767 24.0933 30.6275 23.9769C30.3252 23.721 30.3018 23.2792 30.5577 23.0001C30.8136 22.7211 31.2555 22.6745 31.5345 22.9304C33.7903 24.8837 34.023 28.3026 32.0694 30.5352L32.0697 30.5351Z" fill="#00F5FC"/>
</g>
<defs>
<filter id="filter0_d_15_1283" x="16.5" y="15.5" width="24" height="24" filterUnits="userSpaceOnUse" color-interpolation-filters="sRGB">
<feFlood flood-opacity="0" result="BackgroundImageFix"/>
<feColorMatrix in="SourceAlpha" type="matrix" values="0 0 0 0 0 0 0 0 0 0 0 0 0 0 0 0 0 0 127 0" result="hardAlpha"/>
<feOffset dx="0.5" dy="0.5"/>
<feGaussianBlur stdDeviation="1"/>
<feComposite in2="hardAlpha" operator="out"/>
<feColorMatrix type="matrix" values="0 0 0 0 0 0 0 0 0 0.960784 0 0 0 0 0.988235 0 0 0 0.3 0"/>
<feBlend mode="normal" in2="BackgroundImageFix" result="effect1_dropShadow_15_1283"/>
<feBlend mode="normal" in="SourceGraphic" in2="effect1_dropShadow_15_1283" result="shape"/>
</filter>
<linearGradient id="paint0_linear_15_1283" x1="27.5" y1="10" x2="27.5" y2="45" gradientUnits="userSpaceOnUse">
<stop stop-color="#0074FC"/>
<stop offset="1" stop-color="#155A5C"/>
</linearGradient>
</defs>
</svg>
